PathFileType	4	(X/Y/Z)	C:/Users/beibeiliu/ov580/test_trc\sequence.28_training_dense_left.trc
DataRate	CameraRate	NumFrames	NumMarkers	Units	OrigDataRate	OrigDataStartFrame	OrigNumFrames
120	120	8	19	mm	120	28	110
Frame#	Time	ThumbCMC			ThumbMCP			ThumbIP			ThumbTip			IndexMCP			IndexPIP			IndexTip			MiddleMCP			MiddlePIP			MiddleTip			RingMCP			RingPIP			RingTip			PinkyMCP			PinkyPIP			PinkyTip			BackHand1			BackHand2			BackHand3	
		X0	Y0	Z0	X1	Y1	Z1	X2	Y2	Z2	X3	Y3	Z3	X4	Y4	Z4	X5	Y5	Z5	X6	Y6	Z6	X7	Y7	Z7	X8	Y8	Z8	X9	Y9	Z9	X10	Y10	Z10	X11	Y11	Z11	X12	Y12	Z12	X13	Y13	Z13	X14	Y14	Z14	X15	Y15	Z15	X16	Y16	Z16	X17	Y17	Z17	X18	Y18	Z18	
27	0.225	-133.367	40.1442	36.0503	-112.237	24.7416	20.0668	-105.857	15.229	-5.30826	-101.914	2.65213	-21.929	-137.567	39.2565	-29.2425	-128.864	24.3031	-53.4047	-128.493	2.84542	-63.5237	-155.879	35.6229	-39.7595	-156.181	20.9166	-61.7281	-146.838	-3.99437	-77.1493	-177.084	30.4994	-30.9157	-172.262	16.0018	-54.9585	-167.761	1.56346	-67.348	-194.279	22.5149	-17.636	-188.813	13.9727	-34.0087	-184.219	-1.66687	-50.5198	-177.566	46.5265	13.1074	-183.186	52.2031	38.7042	-156.881	56.5916	21.0357	
28	0.233333	-130.093	41.737	34.3755	-116.972	26.0747	20.2438	-109.076	15.926	-1.77409	-105.69	4.45536	-18.5557	-137.133	39.5381	-32.1747	-133.39	25.4005	-51.8816	-128.385	-1.02914	-65.3591	-156.282	37.0073	-35.7958	-153.938	21.1569	-62.5088	-152.392	-0.108292	-74.39	-175.595	29.9257	-33.1558	-170.732	18.0415	-55.0447	-166.062	2.66889	-67.4537	-191.133	24.1758	-17.897	-190.824	11.2527	-37.1542	-185.477	-2.19493	-52.421	-182.319	47.5502	9.26285	-182.018	54.8226	39.5654	-157.789	59.4372	23.4975	
29	0.241667	-131.717	40.4456	38.0039	-117.571	25.8066	17.8607	-104.606	16.0387	-0.28269	-102.847	2.91273	-18.8296	-138.854	39.1971	-30.085	-131.343	25.0006	-52.2125	-123.696	0.099889	-64.1095	-160.726	35.6489	-38.4853	-155.891	20.8839	-61.2923	-149.435	-4.34787	-76.732	-175.407	29.682	-31.7669	-172.525	17.2015	-53.326	-170.064	0.645952	-67.4769	-189.462	23.1291	-17.9134	-189.992	11.4171	-38.4182	-183.187	-2.42163	-52.4093	-177.911	47.7808	14.06	-180.342	52.6034	37.0378	-156.129	58.7616	24.141	
30	0.25	-134.824	40.0378	33.7865	-113.814	26.0187	16.6621	-110.218	14.9421	0.417179	-106.619	2.51318	-20.3931	-134.329	38.6513	-33.9313	-134.031	24.9902	-51.3824	-127.614	-2.10128	-64.9549	-161.118	34.9559	-35.6259	-157.874	20.1301	-61.6355	-153.539	-2.53446	-74.823	-176.907	29.7737	-33.371	-175.593	15.1077	-54.5861	-165.063	-0.599048	-67.7527	-192.022	21.1893	-19.6489	-191.718	10.9727	-35.6546	-184.527	-5.10404	-54.6061	-183.455	47.2293	10.0046	-183.458	52.1711	37.5696	-158.675	57.9077	22.3754	
31	0.258333	-133.658	40.7965	36.7945	-112.501	25.2745	18.8212	-109.713	16.0856	0.928527	-102.088	3.30237	-18.6126	-137.363	37.7965	-33.543	-130.285	24.7964	-51.3246	-124.497	0.679746	-63.7236	-158.176	34.8823	-39.6232	-154.885	19.7938	-61.4182	-148.986	-2.91057	-77.0479	-178.702	28.293	-30.0438	-174.092	17.8487	-50.5734	-166.687	-0.559024	-67.2238	-193.984	21.0389	-15.9701	-193.272	9.21901	-37.0515	-186.924	-1.71119	-50.3034	-181.84	47.759	11.6722	-180.999	52.4111	38.9083	-153.738	57.3391	22.2954	
32	0.266667	-132.872	39.9756	36.2641	-114.692	25.4564	20.4501	-106.451	14.3776	0.902668	-105.971	3.18213	-18.0213	-134.863	39.4054	-28.0733	-131.812	23.3458	-51.3374	-127.623	0.596085	-63.58	-159.946	34.2487	-35.4391	-156.933	21.3477	-60.1332	-150.057	-2.12133	-75.1454	-175.606	29.771	-29.8347	-175.357	17.8873	-50.2474	-168.535	0.220831	-65.3686	-194.632	19.967	-17.0837	-189.353	10.8244	-36.2608	-184.646	-4.48746	-51.9987	-182.134	47.1894	11.1072	-180.624	52.2818	39.2002	-159.28	55.0179	23.9444	
33	0.275	-130.218	40.5474	38.1676	-113.293	24.6686	19.4311	-107.031	12.9484	-3.07908	-105.623	2.62562	-16.5919	-138.809	36.6523	-28.9758	-134.287	22.611	-51.2593	-127.507	-0.250443	-63.0839	-157.657	33.0194	-37.7727	-156.401	20.0947	-59.298	-150.933	-1.33798	-74.1136	-174.798	27.6485	-31.7568	-174.156	15.9085	-50.0717	-167.65	-2.85531	-66.6561	-194.486	18.4807	-20.5836	-188.92	8.51288	-36.198	-188.391	-4.15095	-51.3575	-178.651	47.0539	11.2666	-180.933	52.2218	34.8128	-158.579	56.647	22.3694	
34	0.283333	-133.502	39.562	38.0309	-113.788	23.0466	21.4351	-109.077	13.1728	1.35141	-107.332	2.16551	-18.0472	-137.391	37.9275	-27.9712	-133.38	20.0038	-52.6188	-128.901	2.87642	-62.6419	-157.684	33.2203	-39.0179	-155.947	17.3079	-60.8494	-148.684	-6.39435	-75.2976	-177.742	27.285	-30.6233	-170.688	15.5001	-53.1021	-165.863	-3.37443	-67.7005	-193.99	18.4562	-15.5034	-189.404	7.80928	-37.9892	-183.383	-4.07143	-53.0919	-179.872	45.8069	11.7287	-183.624	50.7236	39.0683	-160.956	55.2244	22.6626	
